<?xml version="1.0"?>
<svg xmlns="http://www.w3.org/2000/svg" xmlns:xlink="http://www.w3.org/1999/xlink" xmlns:svgjs="http://svgjs.com/svgjs" version="1.1" width="512" height="512" x="0" y="0" viewBox="0 0 512 512" style="enable-background:new 0 0 512 512" xml:space="preserve" class=""><g><g xmlns="http://www.w3.org/2000/svg"><g><path d="m406.709 504.485h-301.418v-80.359c0-41.341 33.514-74.855 74.855-74.855h151.707c41.341 0 74.855 33.514 74.855 74.855v80.359z" fill="#e4d302" data-original="#82aee3" style="" class=""/><path d="m386.674 122.653h-261.682l-17.41 128.985c-5.437 40.283 25.887 76.119 66.535 76.119h163.433c40.648 0 71.972-35.836 66.535-76.119z" fill="#000000" data-original="#9e5528" style="" class=""/><path d="m205.77 281.596v80.319h100.46c0-11.085 0-69.018 0-80.319z" fill="#ffcebf" data-original="#ffcebf" style="" class=""/><path d="m205.769 311.66c15.157 7.44 32.205 11.62 50.23 11.62 18.025 0 35.073-4.179 50.23-11.62 0-13.501 0-25.532 0-30.064h-100.46z" fill="#ffb09e" data-original="#ffb09e" style=""/><path d="m370.16 138.316c-.397 0-.789.017-1.183.03-7.97-55.26-55.511-97.723-112.978-97.723-57.466 0-105.008 42.464-112.978 97.723-.393-.013-.786-.03-1.183-.03-19.411 0-35.147 15.736-35.147 35.147s15.736 35.148 35.147 35.148c.397 0 .789-.017 1.183-.03 7.97 55.26 55.511 97.723 112.977 97.723 57.466 0 105.008-42.463 112.977-97.723.393.013.786.03 1.183.03v-70.295z" fill="#ffcebf" data-original="#ffcebf" style="" class=""/><path d="m124.992 117.303v25.309h96.076c19.293 0 34.932-15.64 34.932-34.932v-85.193c0-8.268-6.703-14.971-14.971-14.971h-6.25c-60.634 0-109.787 49.153-109.787 109.787z" fill="#040404" data-original="#ac5e2e" style="" class=""/><path d="m331.853 349.27h-39.609c41.341 0 74.855 33.514 74.855 74.855v80.359h39.609v-80.359c.001-41.341-33.513-74.855-74.855-74.855z" fill="#e4d302" data-original="#528fd8" style="" class=""/><path d="m205.77 326.388 50.23 35.527-36.944 35.056c-2.251 2.136-5.76 2.199-8.086.144l-47.324-41.798c-3.233-2.855-2.478-8.088 1.429-9.914z" fill="#d3e1f5" data-original="#d3e1f5" style="" class=""/><path d="m306.23 326.388-50.23 35.527 36.944 35.056c2.251 2.136 5.76 2.199 8.086.144l47.324-41.798c3.233-2.855 2.478-8.088-1.429-9.914z" fill="#d3e1f5" data-original="#d3e1f5" style="" class=""/><path d="m256 361.915-61.464 58.323c-3.052 2.896-2.871 7.814.387 10.477l19.879 16.25c3.716 3.038 9.319 1.51 10.978-2.995z" fill="#a33400" data-original="#0055a3" style="" class=""/><path d="m346.925 345.403-40.695-19.015-11.255 7.961 23.658 11.055c3.907 1.826 4.662 7.059 1.429 9.914l-36.781 32.485 9.662 9.168c2.251 2.136 5.76 2.199 8.086.144l47.325-41.798c3.233-2.855 2.479-8.088-1.429-9.914z" fill="#c0d6f2" data-original="#c0d6f2" style="" class=""/><path d="m256 361.915 61.464 58.323c3.052 2.896 2.871 7.814-.387 10.477l-19.879 16.25c-3.716 3.038-9.319 1.51-10.978-2.995z" fill="#a33400" data-original="#0055a3" style="" class=""/><path d="m404.085 251.638-17.41-128.985h-39.608l17.41 128.985c3.664 27.145-9.374 52.257-30.702 65.756-2.78 1.759-3.532 5.473-1.567 8.112 1.056 1.418 2.721 2.255 4.489 2.253 2.152-.002 3.712-.027 5.886-.187 38.163-2.811 66.712-37.331 61.502-75.934z" fill="#020100" data-original="#c86d36" style="" class=""/><path d="m256 22.487v85.193c0 19.293 15.64 34.932 34.932 34.932h96.076v-25.309c0-60.634-49.154-109.788-109.788-109.788h-6.25c-8.267.001-14.97 6.703-14.97 14.972z" fill="#040404" data-original="#ac5e2e" style="" class=""/><path d="m277.221 7.516c-6.373 0-9.929-.49-14.406 2.427 49.635 10.539 86.885 54.585 86.885 107.361v25.309h37.309v-25.309c-.001-60.635-49.154-109.788-109.788-109.788z" fill="#000000" data-original="#9e5528" style="" class=""/></g><g><path d="m256 262.317c15.038 0 27.272-11.126 27.272-24.801 0-4.142-3.357-7.5-7.5-7.5s-7.5 3.358-7.5 7.5c0 5.404-5.506 9.801-12.272 9.801s-12.272-4.397-12.272-9.801c0-4.142-3.357-7.5-7.5-7.5s-7.5 3.358-7.5 7.5c0 13.675 12.234 24.801 27.272 24.801z" fill="#000000" data-original="#000000" style="" class=""/><path d="m307.73 206.404c4.143 0 7.5-3.358 7.5-7.5v-14.459h5.476c4.143 0 7.5-3.358 7.5-7.5s-3.357-7.5-7.5-7.5h-12.976c-4.143 0-7.5 3.358-7.5 7.5v21.959c0 4.142 3.358 7.5 7.5 7.5z" fill="#000000" data-original="#000000" style="" class=""/><path d="m191.294 184.445h5.476v14.459c0 4.142 3.357 7.5 7.5 7.5s7.5-3.358 7.5-7.5v-21.959c0-4.142-3.357-7.5-7.5-7.5h-12.976c-4.143 0-7.5 3.358-7.5 7.5s3.357 7.5 7.5 7.5z" fill="#000000" data-original="#000000" style="" class=""/><path d="m362.529 347.721c-.487-2.291-2.007-4.24-4.147-5.239l-15.807-7.386c20.657-1.375 39.942-11.42 52.961-27.468 13.095-16.141 18.773-36.381 15.991-56.993l-17.01-126.019v-7.32c0-13.851-2.393-27.413-7.112-40.31-1.423-3.889-5.728-5.889-9.62-4.466-3.89 1.424-5.89 5.731-4.466 9.621 4.112 11.24 6.198 23.068 6.198 35.155v7.824 9.986h-29.751-58.831c-15.128 0-27.435-12.307-27.435-27.435v-85.199c0-4.12 3.352-7.472 7.472-7.472h6.25c31.437 0 60.679 14.15 80.228 38.821 2.572 3.247 7.287 3.792 10.536 1.221 3.246-2.572 3.793-7.29 1.22-10.536-22.411-28.284-55.938-44.506-91.984-44.506h-6.25c-5.747 0-10.994 2.171-14.972 5.732-3.978-3.561-9.225-5.732-14.972-5.732h-6.25c-64.677 0-117.295 52.618-117.295 117.295v21.174c-11.381 7.925-18.301 20.94-18.301 34.99 0 9.268 2.979 17.848 8.019 24.851l-7.062 52.324c-2.882 21.346 3.596 42.89 17.771 59.108 13.141 15.034 31.707 24.11 51.507 25.357l-15.8 7.383c-2.14 1-3.66 2.948-4.147 5.24-30.827 12.388-51.689 42.633-51.689 76.415v24.873c0 4.142 3.357 7.5 7.5 7.5s7.5-3.358 7.5-7.5v-24.873c0-28.745 18.461-54.371 45.358-63.663l45.831 40.479-14.601 13.855c-3.017 2.863-4.659 6.888-4.506 11.043.153 4.156 2.088 8.049 5.308 10.682l19.88 16.251c3.626 2.964 8.479 3.988 12.982 2.76 4.51-1.23 8.167-4.584 9.781-8.97l23.186-62.951 23.185 62.95c3.443 9.357 15.093 12.481 22.764 6.21l19.88-16.251c6.754-5.522 7.125-15.725.802-21.725l-14.602-13.855 45.832-40.48c26.897 9.292 45.357 34.918 45.357 63.664v72.864h-286.436v-12.991c0-4.142-3.357-7.5-7.5-7.5s-7.5 3.358-7.5 7.5v13.504c0 7.988 6.499 14.487 14.486 14.487h287.463c7.987 0 14.486-6.499 14.486-14.487v-73.377c.001-33.782-20.861-64.027-51.688-76.415zm9.387-97.087-8.235-61.003-5.335-39.526h24.475l13.84 102.536c2.223 16.469-2.313 32.641-12.774 45.537-10.094 12.441-24.889 20.354-40.738 21.827 20.858-15.924 32.409-42.391 28.767-69.371zm-239.433-133.339c0-56.406 45.89-102.295 102.295-102.295h6.25c4.12 0 7.472 3.352 7.472 7.472v85.198c0 15.127-12.307 27.435-27.435 27.435h-88.582zm-5.458 32.81c104.382 0 113.059 4.658 128.975-18.37 8.063 11.666 21.224 18.37 34.935 18.37h52.275l.139 1.029 11.078 82.071c-.348.834-.69 1.672-1.058 2.495-.071.159-.138.319-.21.477-10.215 22.542-27.89 40.812-50.23 51.778-14.919 7.324-30.859 10.853-46.929 10.853-47.417 0-89.38-31.933-102.469-76.993-.006-.02-.011-.039-.017-.059-1.373-4.736-2.437-9.816-3.076-14.248-.229-1.584-.956-3.037-2.041-4.153-2.466-2.537-5.148-2.247-6.565-2.247-7.549 0-14.975-3.118-20.33-8.934-.111-.12-.219-.243-.328-.365-4.345-4.886-6.992-11.313-6.992-18.35.001-9.506 4.878-18.296 12.843-23.354zm2.18 149.765c-11.327-12.959-16.503-30.173-14.2-47.23l5.688-42.141c4.672 2.671 10.288 4.604 15.948 5.294 6.867 34.861 28.997 65.862 61.627 83.466v21.002h-24.155c-17.214 0-33.582-7.432-44.908-20.391zm89.783 140.845-18.871-15.427 37.743-35.814zm-4.093-50.129-44.562-39.359 34.171-15.967h.814l38.893 27.508zm-1.628-68.075v-16.415c13.604 5.122 27.931 7.712 42.733 7.712 14.378 0 28.877-2.494 42.733-7.712v16.415l-42.733 30.224zm98.616 102.777-18.871 15.427-18.872-51.241zm-14.778-34.702-29.315-27.816 38.893-27.508h.814l34.171 15.967zm32.664-79.526c-3.107 1.966-5.271 5.158-5.938 8.755-.028.148-.053.297-.075.446h-10.022v-21.002c16.945-9.141 32.394-22.748 43.832-40.103.502 21.286-10.466 40.932-27.797 51.904z" fill="#000000" data-original="#000000" style="" class=""/></g></g></g></svg>
